<svg 
  xmlns="http://www.w3.org/2000/svg" 
  width="16" 
  height="11" 
  fill="none" 
  viewBox="0 0 16 11"
>
  <path fill="#fff" d="M0 5.608v-.746q.725 0 1.01-.294.29-.298.29-.967V2.514q0-.72.179-1.18.184-.46.532-.716.35-.255.853-.354A6 6 0 0 1 4.006.162v1.185q-.504 0-.772.14a.73.73 0 0 0-.37.422q-.099.286-.098.729v1.398q0 .327-.111.613-.111.285-.405.503-.294.213-.84.337-.54.12-1.41.12m4.006 5.382q-.64 0-1.142-.102a2.1 2.1 0 0 1-.853-.354q-.35-.255-.532-.716-.18-.46-.18-1.18V7.556q0-.669-.29-.963-.285-.3-1.009-.299v-.746q.87 0 1.41.124.546.12.84.337.294.213.405.498.11.286.11.61v1.397q0 .444.099.73.102.284.37.425.269.14.772.14zM0 6.294V4.862h1.35v1.432zm15.61-.711v-.746q-.726 0-1.01-.294-.29-.298-.29-.967V2.489q0-.72-.18-1.18a1.6 1.6 0 0 0-.532-.716 2.1 2.1 0 0 0-.852-.354 6 6 0 0 0-1.142-.102V1.32q.503 0 .77.141.27.136.372.422.098.285.098.729V4.01q0 .33.11.614.112.285.405.503.294.213.84.336.54.12 1.41.12m-4.006 5.382q.639 0 1.142-.102.503-.099.852-.354.35-.256.532-.716.18-.46.18-1.18V7.53q0-.669.29-.963.285-.298 1.01-.298v-.746q-.87 0-1.411.124-.546.12-.84.336a1.1 1.1 0 0 0-.405.499q-.11.285-.11.61v1.397q0 .443-.098.729a.75.75 0 0 1-.371.426q-.27.14-.771.14zm4.005-4.696V4.837h-1.35v1.432z"/>
  <path fill="#fff085" d="M9.479 0 6.666 10.449H4.672L7.484 0zm.318 10.506q-.494 0-.848-.345a1.14 1.14 0 0 1-.345-.848q-.004-.486.345-.831.354-.345.848-.345.468 0 .826.345.363.345.367.83a1.15 1.15 0 0 1-.175.606q-.165.268-.434.43a1.13 1.13 0 0 1-.584.158"/>
</svg>